<svg xmlns="http://www.w3.org/2000/svg" viewBox="0 0 128 128" width="128" height="128">
  <defs>
    <linearGradient id="blueGrad" x1="0%" y1="0%" x2="0%" y2="100%">
      <stop offset="0%" style="stop-color:#4A90E2;stop-opacity:1" />
      <stop offset="100%" style="stop-color:#2E5C8A;stop-opacity:1" />
    </linearGradient>
  </defs>
  
  <!-- Background circle -->
  <circle cx="64" cy="64" r="60" fill="url(#blueGrad)" stroke="#1E3A5F" stroke-width="2"/>
  
  <!-- Left wing -->
  <path d="M 20 40 Q 10 50, 15 60 Q 12 55, 18 65 Q 15 70, 20 75 Q 25 70, 30 65 Q 35 60, 35 55 Q 30 50, 25 45 Z" 
        fill="#87CEEB" stroke="#4A90E2" stroke-width="1.5" opacity="0.9"/>
  <path d="M 25 45 Q 20 50, 22 55 Q 20 60, 25 60 Q 30 55, 30 50 Z" fill="#B0E0E6"/>
  
  <!-- Right wing -->
  <path d="M 108 40 Q 118 50, 113 60 Q 116 55, 110 65 Q 113 70, 108 75 Q 103 70, 98 65 Q 93 60, 93 55 Q 98 50, 103 45 Z" 
        fill="#87CEEB" stroke="#4A90E2" stroke-width="1.5" opacity="0.9"/>
  <path d="M 103 45 Q 108 50, 106 55 Q 108 60, 103 60 Q 98 55, 98 50 Z" fill="#B0E0E6"/>
  
  <!-- Letter B -->
  <path d="M 50 30 L 50 90 L 70 90 Q 85 90, 85 75 Q 85 65, 78 60 Q 85 55, 85 45 Q 85 30, 70 30 Z" 
        fill="white" stroke="#1E3A5F" stroke-width="2" stroke-linejoin="round"/>
  <path d="M 55 35 L 55 60 L 75 60 Q 80 60, 80 55 Q 80 50, 75 50 L 55 50 Z" fill="#4A90E2" opacity="0.2"/>
  <path d="M 55 65 L 55 85 L 75 85 Q 80 85, 80 80 Q 80 75, 75 75 L 55 75 Z" fill="#4A90E2" opacity="0.2"/>
  <line x1="55" y1="60" x2="80" y2="60" stroke="#1E3A5F" stroke-width="1.5"/>
  <line x1="55" y1="75" x2="80" y2="75" stroke="#1E3A5F" stroke-width="1.5"/>
</svg>
